<?xml version="1.0" encoding="UTF-8" standalone="no"?>
<!-- Created with Inkscape (http://www.inkscape.org/) -->

<svg
   version="1.1"
   id="svg437"
   width="110.61218"
   height="53.380112"
   viewBox="0 0 110.61218 53.380112"
   sodipodi:docname="LogotypeStyled.svg"
   xml:space="preserve"
   inkscape:version="1.2.1 (9c6d41e410, 2022-07-14)"
   inkscape:export-filename="../SKOG/public/assets/img/logo/logo.svg"
   inkscape:export-xdpi="96"
   inkscape:export-ydpi="96"
   xmlns:inkscape="http://www.inkscape.org/namespaces/inkscape"
   xmlns:sodipodi="http://sodipodi.sourceforge.net/DTD/sodipodi-0.dtd"
   xmlns="http://www.w3.org/2000/svg"
   xmlns:svg="http://www.w3.org/2000/svg"><defs
     id="defs441" /><sodipodi:namedview
     id="namedview439"
     pagecolor="#ffffff"
     bordercolor="#000000"
     borderopacity="0.25"
     inkscape:showpageshadow="2"
     inkscape:pageopacity="0.0"
     inkscape:pagecheckerboard="0"
     inkscape:deskcolor="#d1d1d1"
     showgrid="false"
     inkscape:zoom="0.79793689"
     inkscape:cx="-41.98327"
     inkscape:cy="266.31179"
     inkscape:window-width="1920"
     inkscape:window-height="1012"
     inkscape:window-x="0"
     inkscape:window-y="32"
     inkscape:window-maximized="1"
     inkscape:current-layer="g585" /><g
     transform="translate(-158.02894,-8.1295338)"
     id="g585"
     inkscape:label="logotipoSkog"><path
       d="m 168.69964,45.68895 c -4.48962,-1.221683 -6.7513,-4.580117 -6.80431,-10.104315 -0.0341,-3.540983 7.40006,-4.020254 7.71921,-0.4975 0.31399,3.46521 0.95498,4.379835 3.06894,4.379835 4.95578,0 3.5458,-5.17023 -2.57852,-9.45449 -6.40537,-4.480782 -7.84185,-6.593056 -7.82712,-11.510002 0.039,-12.9992227 20.21104,-13.9486609 20.83115,-0.980444 0.14724,3.079651 -7.21021,3.974736 -7.52589,0.915675 -0.44034,-4.266582 -4.57503,-5.28403 -5.3499,-1.316683 -0.38971,1.995857 0.90012,3.440845 6.16626,6.907929 5.17265,3.40577 6.52291,5.14962 7.01583,9.062774 1.17586,9.334003 -5.54963,15.091418 -14.71549,12.597329 z m 48.77854,0.185402 c -6.46238,-1.271727 -8.29486,-4.784142 -8.53825,-16.365099 -0.34014,-16.18517 1.8305,-20.3912414 10.83581,-20.9968902 9.49868,-0.6387699 12.76869,3.4470022 13.09615,16.3624192 0.37273,14.701301 -1.44775,19.32774 -8.21052,20.86596 -4.07327,0.926411 -4.69124,-0.410426 -2.81271,-6.084068 0.98799,-2.983789 1.12915,-4.368323 0.57732,-5.661816 -0.33196,-0.777999 -0.32088,-0.794252 1.00246,-1.472624 2.20282,-1.129205 3.58703,-4.032838 1.9227,-4.032838 -1.35733,0 -3.63631,1.774857 -3.63631,2.831984 0,0.740701 -0.49838,0.367941 -0.83296,-0.622972 -0.62,-1.836385 -0.38925,-3.436829 1.06992,-7.420669 1.83504,-5.010123 1.48433,-8.443471 -0.86255,-8.443471 -0.85688,0 -0.86638,3.448074 -0.013,4.705693 0.70019,1.031798 0.70019,1.031798 0.25401,2.447308 -0.88663,2.812704 -1.23842,3.464674 -1.55108,2.874822 -1.2454,-2.350062 -5.15363,-3.874598 -4.63474,-1.808109 0.41501,1.653591 2.41093,3.270823 4.05775,3.287959 0.51485,0.0053 0.54855,0.103844 0.36994,1.080609 -0.26895,1.470853 0.0611,2.970678 1.18822,5.400501 1.06163,2.288531 1.15274,3.202017 0.52888,5.302769 -0.42555,1.432996 -0.42555,1.432996 -0.83805,0.581262 -1.2461,-2.57294 -5.51349,-3.953584 -4.4955,-1.454575 0.56114,1.37757 1.76701,2.413704 3.2411,2.784852 1.20575,0.303631 1.22647,0.32685 1.01778,1.14182 -0.28284,1.104624 -0.29516,3.62586 -0.0213,4.379569 0.24825,0.683383 -0.4408,0.763551 -2.71524,0.315948 z m 25.19788,-0.369714 c -5.91833,-1.84961 -7.17353,-5.063404 -7.16898,-18.353933 0.005,-13.978382 1.58775,-17.2058302 9.0692,-18.4929013 7.41531,-1.2756373 12.11431,2.0550553 13.04072,9.2435043 0.45359,3.519296 0.63941,3.358914 -3.892,3.358914 -3.858,0 -3.858,0 -4.02079,-1.539558 -0.41211,-3.90057 -1.97103,-5.522326 -4.17475,-4.342891 -2.37546,1.271326 -2.6508,21.725163 -0.31714,23.560856 2.37335,1.866888 4.57343,-0.297119 4.6899,-4.613051 0.0599,-2.221486 0.0599,-2.221486 -1.61349,-2.301196 -5.75875,-0.27431 -1.84838,-6.480065 4.08318,-6.480065 5.75661,0 5.75661,0 5.75661,9.906717 0,9.906725 0,9.906725 -2.92169,9.906725 -2.92168,0 -2.92168,0 -3.10267,-1.071641 -0.18106,-1.071612 -0.18106,-1.071612 -1.25963,-0.148403 -1.94143,1.661783 -5.38283,2.237732 -8.16876,1.3671 z M 185.90253,27.351516 c 0.0688,-18.0061325 0.0688,-18.0061325 4.21892,-18.0061325 4.1501,0 4.15011,0 4.28399,7.1821035 0.13387,7.182105 0.13387,7.182105 3.18059,-0.06694 3.04672,-7.2490418 3.04672,-7.2490418 7.29617,-7.2490418 2.33721,0 4.24944,0.05963 4.24944,0.132512 0,0.07288 -1.72312,3.6577208 -3.82908,7.9663408 -3.82908,7.833805 -3.82908,7.833805 0.13244,17.8736 2.17889,5.521783 3.96215,10.072993 3.96296,10.113156 5.6e-4,0.04037 -2.00649,0.04037 -4.46071,0 -4.46204,-0.07337 -4.46204,-0.07337 -6.55075,-6.334139 -2.84027,-8.513361 -3.98116,-8.064346 -3.98116,1.567529 0,4.827252 0,4.827252 -4.28586,4.827252 -4.28585,0 -4.28585,0 -4.21705,-18.006134 z"
       fill="url(#linearGradient4732)"
       id="path573"
       style="fill:#95c623;fill-opacity:1;stroke:#000000;stroke-width:0.26297;stroke-dasharray:none;stroke-opacity:1"
       inkscape:label="SKOG"
       inkscape:export-filename="../SKOG/public/assets/img/logo/logo.svg"
       inkscape:export-xdpi="96"
       inkscape:export-ydpi="96" /><text
       xml:space="preserve"
       style="font-style:normal;font-variant:normal;font-weight:normal;font-stretch:normal;font-size:22px;font-family:sans-serif;-inkscape-font-specification:sans-serif;text-align:center;letter-spacing:0px;text-anchor:middle;white-space:pre;inline-size:1578.96;fill:#ff7f11;fill-opacity:1;fill-rule:evenodd;stroke:#000000;stroke-width:1.26452;stroke-linecap:square;stroke-linejoin:miter;stroke-miterlimit:25.4;stroke-dasharray:none;stroke-opacity:0.533965;paint-order:stroke fill markers"
       x="172.94601"
       y="171.06616"
       id="text3896"
       transform="matrix(0.79081579,0,0,0.79081579,76.247807,-74.518535)"
       inkscape:label="bioinsumos"
       inkscape:export-filename="../SKOG/public/assets/img/logo/logo-white.svg"
       inkscape:export-xdpi="96"
       inkscape:export-ydpi="96"><tspan
         x="172.94601"
         y="171.06616"
         id="tspan10605"><tspan
   style="font-weight:bold;-inkscape-font-specification:'sans-serif Bold';fill:#fffcff"
   id="tspan10601">bio</tspan><tspan
   style="font-weight:bold;-inkscape-font-specification:'sans-serif Bold'"
   id="tspan10603">insumos</tspan>
</tspan></text></g></svg>
